<svg width="2362" height="2216" viewBox="0 0 2362 2216" fill="none" xmlns="http://www.w3.org/2000/svg">
<path d="M1245.58 25.46C1263.28 45.59 1271.43 71.16 1293.53 92.62C1364.1 150.82 1416.88 146.28 1413.21 256.85C1435.67 265.97 1450.25 276.76 1458.68 300.36C1492.36 288.45 1504.65 398.35 1519.25 396.77C1538.96 361.48 1562.25 377.26 1588.9 392.62C1641.48 257.88 1796.85 356.86 1732.58 468.15C1711.54 504.88 1685.15 503.83 1713.96 553.61C1668.75 578.11 1627.15 602.98 1613.2 656.76C1600.94 704.04 1616.81 765.78 1663.23 788.79C1665.52 739.03 1704.04 735.47 1731.23 770.81C1967.79 535.42 2110.95 1184.04 2329.31 1128.68C2331.43 1177.61 2269.35 1194.75 2229.25 1190.82C2216.81 1189.6 2194.12 1178.05 2185.24 1178.65C2167.5 1179.86 2140.2 1205.98 2115.47 1187.01C2105 1209.83 2123.49 1233.59 2090.79 1248.34C2068.62 1254.21 2051.66 1234.64 2048.28 1214.12L2043.35 1212.91C2000.21 1276.21 2019.62 1398.62 2105.77 1412.3C2183.91 1424.7 2209.27 1319.88 2286.09 1367.97C2325.64 1392.73 2311.88 1405.92 2327.42 1436.64C2377.96 1483.86 2372.59 1601.43 2313.2 1640.76C2231.6 1692.04 2186.52 1557.4 2228.75 1528.31C2258.5 1509.28 2292.31 1541.36 2290.28 1573.51C2295.94 1581.28 2309.23 1552.87 2310.11 1547.67C2311.03 1400.88 2124.33 1433.44 2187.44 1694.86C2120.7 1759.15 2068.89 1831.99 2035.42 1918.98C1971.68 1932.89 1919.62 1961.79 1872.26 2005.92C1732.52 1973.38 1723.44 2200.31 1835.29 2171.04C1841.35 2169.13 1852.42 2159.14 1842.26 2153.8C1784.04 2153.64 1783.66 2075.62 1828.43 2051.99C1924.31 2001.38 1965.43 2201.09 1837.07 2214.63C1791.33 2219.46 1790.02 2207.49 1755.36 2190.7C1694.17 2176.84 1658.53 2110.52 1621.03 2065.02L1616.08 2066.04C1574.42 2177.85 1448.6 2019.71 1634.38 1981.45C1616.21 1922.12 1514.41 1910.87 1462.38 1925.93C1442.22 1983.25 1428.38 2022.61 1360.73 2033.28C1349.04 2083.1 1307.13 2126.3 1252.73 2116.22C1222.63 2192.48 1127.75 2191.74 1100.28 2113.78C1041.93 2120.97 1005.87 2077.5 993.95 2025.11C933.62 2025.64 907.1 1970.61 897.22 1918.84C860.85 1904.37 803.41 1904.59 767.81 1921.37C759.68 1925.2 711.71 1959.3 724.16 1967.92C739.22 1967.57 756.56 1973.88 768.75 1982.76C772.36 1985.39 775.01 1993.64 780.18 1997.88C800.57 2014.63 822.37 2020.43 818.1 2055.67C796.66 2114.24 755.3 2106.38 731.25 2054.86C726.57 2054.86 689.26 2108.39 682.23 2115.78C614.37 2187.1 430.29 2249.09 432.1 2093.79C433.63 1962.61 618.96 2015.07 544.09 2119.64L520.05 2128.21C515.4 2129.87 513.94 2135.73 517.28 2139.37L520.89 2143.31C522.71 2145.29 525.27 2146.44 527.96 2146.43C641.55 2145.84 608.38 1949.11 486.35 1981.86C442.73 1935.9 383.74 1909.02 324.08 1887.97C290.76 1804.96 239.67 1723.06 177.13 1658.88C268.56 1353.6 -3.52005 1386.14 68.0799 1534.01L73.8199 1529.37C69.0499 1471.46 150.58 1462.66 158.26 1521.81C168.24 1598.73 84.42 1648.63 29.44 1578.63C-28.93 1504.33 11.9799 1435.36 45.4799 1365.03C58.08 1338.58 90.6499 1316.02 119.85 1313.52C172.09 1309.06 199.34 1368.16 243.45 1376.63C349.02 1396.88 395.03 1264.88 343.23 1190.84C338.99 1190.17 336.64 1223.2 301.23 1220.93C263.94 1215.79 268.73 1190.35 263.12 1161.1C240.11 1173.58 212.57 1149.26 195.28 1148.65C184.16 1148.26 168.59 1157.85 159.34 1158.91C114.32 1164.06 47.28 1140.2 48.29 1086.82C302.24 1153.27 402.48 505.91 659.27 752.78C681.57 709.94 728.59 730.22 726.15 773.98C734.78 781.21 765.45 741.04 769.1 734.65C816.98 650.93 763.17 574.28 684.55 541.36L699.91 496.3C571.31 396.1 739.95 223.81 815.26 388.77C836.61 364.51 866.02 364.47 885.2 390.82C890.45 389.7 913.98 317.98 922.25 307.81C931.84 296.03 943.14 300 949.72 294.28C959.6 285.68 966.98 251.97 996.02 254.6C988.78 163.82 1030.4 129.42 1097.3 80.87C1138.48 42.82 1185.85 -42.47 1245.58 25.47V25.46ZM1392.24 255.82C1403.98 150.84 1335.85 142.96 1273.29 88.77C1256.05 71.86 1232.36 26.5 1213.13 20.92C1166.64 7.42003 1155.15 52.97 1127.29 78.87C1072.46 129.83 1011.66 152.56 1016.14 245.93C1015.56 262.39 1032.85 252.8 1039.07 246.64C1050.67 221.4 1055.35 192.71 1072.25 169.82C1090.81 144.68 1122.14 132.3 1141.5 112.06C1199.13 21.33 1204.63 38.67 1263.3 116.76C1306.17 159.6 1361.04 166.6 1364.51 245.55C1366.1 252.48 1389.21 263.16 1392.25 255.81L1392.24 255.82ZM1196.88 220.22L1193.21 72.8C1187.32 70.46 1164.07 111.03 1157.53 118.07C1148.22 128.09 1110.61 151.13 1109.31 162.6C1119.12 192.43 1145.84 245.56 1135.21 276.75C1134.88 277.73 1129.5 284.77 1127.27 280.82L1096.33 181.77C1084.47 170.54 1069.2 209.84 1068.23 217.87L1070.09 230.01C1102.31 237.83 1095.15 271.31 1075.09 288.64C1053.77 307.05 1021.17 300.66 1009.64 308.68C999.9 315.46 1000.22 338.05 972.21 329.67C974.45 356.25 953.5 355.5 944.22 368.33C937.3 377.9 937.03 392.75 927.93 405.48C907.61 433.91 875.24 445.16 841.13 440.71C881.32 603.58 1100.38 456.8 1201.3 534.71C1303.14 459.73 1516.02 605.38 1559.35 448.81C1532.18 452.93 1502.57 437.74 1484.3 417.8C1463.67 395.29 1467.7 366.99 1438.48 353.62C1437.18 326.12 1426.99 338.32 1411.62 330.39C1404.21 326.56 1399.51 312.12 1395.8 310.14C1388.96 306.48 1372 308.25 1364.14 305.96C1336.17 297.83 1308.55 276.5 1318.67 244.23L1341.97 225.9C1324.49 147.24 1305.14 194.4 1290.16 237.72C1288.85 241.51 1282.08 286.46 1275.28 280.82C1259.01 239.96 1289.94 200.49 1301.49 162.75L1216.25 79.67L1214.66 216.09C1212.57 227.27 1204.29 226.56 1196.89 220.23L1196.88 220.22ZM989.93 316.49L994.23 293.81C1014.55 292.03 1046.42 291.4 1063.22 278.79C1073.96 270.73 1089.11 247.35 1064.82 248.29C1048.59 256.78 1041.51 270.27 1022.36 273.94C993.15 279.54 958.01 259.72 965.21 312.83L989.92 316.48L989.93 316.49ZM1365.05 265.99C1356.57 260.57 1349.03 245.19 1335.53 249.06C1313.33 290.58 1385.86 293.86 1410.96 295.1L1414.55 318.5L1438.34 317.33L1442.12 304.13L1431.38 278.67C1404.38 270.12 1389.82 281.83 1365.04 265.98L1365.05 265.99ZM943.71 315.08C934.36 313.05 891.86 400.79 901.29 406.83C915.77 410.03 925.87 361.59 931.39 354.98C941.15 343.3 961.63 351.52 953.79 322.28L943.71 315.09V315.08ZM1469.6 321.45C1467.03 319.54 1464.44 317.54 1461.19 316.85L1449.53 346.36L1472.25 357.82C1481.04 379.44 1484.87 407.85 1509.2 418.82C1519.76 417.45 1470.88 322.67 1469.6 321.45ZM736.84 391.42C715.37 467.62 819.39 445.56 793.73 374.34C770.6 310.13 661.52 329.65 668.81 415.26C672.97 464.14 712.15 474.97 717.34 492.72C722.21 509.38 703.69 524.41 712.08 539.48C802.91 587.23 841.54 733.39 736.03 789.61C724.18 795.41 685.16 807.66 696.12 781.68C716.45 777.45 714.31 754.65 698.77 745.13C647.58 756.97 667.31 820.64 715.56 824.03C758.29 827.03 800.12 767.56 814.61 732.17C850.16 645.31 824.48 570.3 737.2 532.88L746.86 483.37C625.97 416.66 739.82 327.13 754.53 383.95L736.85 391.41L736.84 391.42ZM1713.58 472.17C1736.47 444.36 1741.41 388.23 1714.29 361.76C1657.62 306.47 1564.42 384.1 1623.5 442.55C1646.8 453.02 1672.73 437.71 1669.55 412.07C1667.22 393.23 1642.03 398.5 1650.74 379.28C1733.79 366.63 1718.18 470.7 1655.66 491.26L1661.24 542.8C1599.11 576.39 1564.4 612.73 1566.16 687.86C1567.25 734.33 1613.74 837.91 1667.98 837.71C1691.17 837.63 1716.37 826.88 1719.71 801.3C1725.45 757.31 1672.71 755.9 1678.59 785.31L1697.22 802.83L1692.82 812.25C1653.49 812.08 1619.62 772.13 1605.87 738.18C1571.69 653.82 1619.66 592.29 1687.21 546.77C1691.93 535.11 1676.89 515.3 1679.07 504.74C1680.86 496.08 1707.33 479.76 1713.58 472.17ZM845.04 494.04C825.97 468.79 817.06 423.82 845.35 402.75L855.11 425.06C866.9 435.57 881.83 392.14 858.41 385.67C806.38 384.23 804.1 449.93 821.17 486.9C859.36 569.63 967.93 558.12 1041.23 543.23L1054.36 547.71C1092.71 597.85 1136.81 708.36 1064.26 746.81C1069.94 728.43 1087.38 701.85 1050.74 717.33C1000.79 824.9 1215.79 767.1 1070.33 523.72L1065.3 520.87C1002.72 533.06 888.7 551.88 845.05 494.04H845.04ZM1559.41 520.01C1588.34 489.99 1604.06 438.01 1575.5 402.55C1545.05 364.74 1511.23 416.38 1547.02 430.72L1552.35 408.92L1559.79 409.31C1581.77 433.72 1578.63 466.96 1561.86 493.43C1519.83 559.77 1396.88 530.3 1332.24 527.8C1292.41 597.59 1241.56 703.76 1314.75 769.29C1332.49 775.82 1350.49 763.26 1353.75 745.32C1361.63 701.88 1305.02 691.52 1332.28 739.83L1326.63 746.34C1269.95 691.84 1302.24 589.8 1354.86 545.16C1417.19 558.62 1510.86 570.38 1559.41 520V520.01ZM787.97 445.11L751.14 450.92C739.4 451.88 718.99 430.72 716.75 421.31C715.18 414.71 720.04 391.98 715.2 390.83C684.37 427.4 727.94 469.45 766.14 468.92L753.1 528.93C837.54 563.27 851.17 628.26 841.28 710.82C883.29 678.11 896.39 621.3 927.12 578.83C957.28 590.45 1071.4 669.04 1042.23 704.79L1083.39 698.96C1103.98 652.78 1077.13 596.92 1047.39 560.74C930.14 566.85 829.83 582.32 787.96 445.11H787.97ZM686.24 1074.82H729.24C752.41 1074.82 848.08 1017.93 852.24 995.71C831.05 901.55 960.65 803.36 1038.94 868.66C1131.55 793.07 1260.99 798.75 1351.71 874.55C1417.58 818.37 1520.22 889.47 1532.11 961.96C1535.07 979.99 1528.69 1002.13 1537.17 1016.9C1547.94 1035.68 1630.6 1086.83 1651.25 1086.83H1698.25C1645.93 1180.15 1699.3 1297.92 1667.15 1392.73C1640.69 1470.76 1565.24 1515.99 1517.23 1576.81C1509.92 1586.07 1486.66 1608.65 1501.68 1618.4L1528.9 1624.47C1549.11 1570.77 1600.15 1553.17 1653.94 1554.53C1656.55 1541 1646.76 1533.35 1648.23 1517.87C1650.7 1491.85 1685.23 1480.19 1701.35 1464.93C1727.22 1440.44 1724.11 1410.32 1773.26 1427.01L1779.52 1423.84L1783.58 1380.13C1750.87 1356.17 1734.74 1300.93 1769.27 1272.82L1796.5 1273.79L1802.27 1266.04C1763.66 1160.3 1691.58 1102.45 1783.47 998.7C1731.8 965.17 1711.18 908.75 1709.27 848.81C1693.55 847.24 1683.09 854.92 1665.7 852.36C1540.87 810.51 1503.4 585.03 1645.23 536.83L1634.45 480.09C1657.26 471.38 1680.08 468.09 1692.73 444.31C1695.01 437.19 1697.63 396.14 1685.27 396.8L1682.18 399.86C1695.02 446.68 1655.95 474.34 1614.18 455.67C1582.08 580.31 1466.16 576.89 1361.48 561.44C1326.84 591.14 1296.39 653.03 1316.23 697.95C1379.61 685.19 1389.35 780.22 1329.37 786.84C1299.03 787.39 1285.65 749.52 1275.26 748.58C1225.95 766.79 1170.65 767.96 1121.35 748.78C1108.03 759.25 1105.07 773.19 1088.06 779.63C1050.64 793.8 1012.07 763.55 1032.2 725.74L1029.24 722.79C1001.54 749.21 990.97 788.87 981.72 825.28L976.31 828.8C958.87 798.96 870.72 717.24 837.26 724.61C805.81 786.39 764.08 854.42 682.28 834.81C686.3 901.91 660.19 948.68 606.18 985.94C684.76 1073.51 619.34 1160.56 586.29 1249.94L591.33 1254.97C653.95 1238.91 646.04 1343.08 598.53 1358.21L600.29 1404.82C649.13 1387.61 652.89 1423.28 678.3 1449.8C693.84 1466.02 722.59 1474.46 724.36 1501.92C724.9 1510.31 714.15 1535.15 718.18 1537.91C770.25 1536.09 819.64 1565.49 836.15 1615.86C875.69 1603.7 885.96 1612.36 855.04 1571.06C604.32 1313.72 764.76 1333.34 686.28 1074.83L686.24 1074.82ZM1304.24 528.82C1252.22 527.17 1249.75 528.5 1203.24 554.88C1173.68 535.22 1134.53 520.74 1098.42 527.04C1118.81 588.71 1146 645.97 1138.19 713.36C1178.51 726.6 1219.93 724.18 1259.26 708.84C1252.74 644.05 1281.7 587.29 1304.24 528.82ZM1027.04 699.67C1031.1 693.75 1037.28 696.94 1033.15 682.92C1007.75 647.06 974.84 616.96 935.51 597.01L861.31 715.14L972.22 794.81C978.28 755.74 1006.73 729.26 1027.04 699.66V699.67ZM527 964.06C662.03 1052.04 748 689.91 529.43 719.01C365.87 756.15 279.88 1111 83.5899 1109.06C68.1099 1114.91 112.61 1137.11 121.39 1138.67C306.59 1171.65 418.74 814.72 537.8 793.38C639.32 771.8 659.69 940.35 564.12 953.93C562.36 927.34 587.78 938.85 577.65 902.41C561.29 843.57 475.03 912.87 527 964.06ZM1130.53 738.55C1153.5 744.71 1179.27 751.52 1203.14 750.2C1212.97 749.65 1291.63 739.78 1259.23 722.85C1214.68 736.12 1175.32 733.6 1130.24 724.81L1130.53 738.55ZM2037.42 905.62C1782.65 516.14 1612.11 913.07 1815.18 992.89C1864.54 997.34 1891.46 963.83 1874.74 917.33C1833.87 861.25 1781.41 923.8 1827.41 964.7L1823.18 969.88C1708.43 929.43 1776.73 741.73 1890.07 834C1993.52 910.96 2152.1 1290.41 2302.23 1148.86C2175.63 1135.33 2111.77 993.67 2037.42 905.63V905.62ZM589.1 823.96C506.31 771.89 430.82 918.78 391.15 972.71C346.68 1031.62 291.13 1095.21 228.13 1133.69L226.29 1140.76C395.41 1175.96 502.04 735.34 600.22 898.81C609.77 874.1 609.69 842.79 589.11 823.96H589.1ZM1945.03 914.04C1915.64 879.01 1858.96 802.72 1805.59 837.17C1779.79 853.82 1778.53 888.76 1789.29 914.77L1794.28 915.87C1872.41 751.22 2029.12 1204.99 2139.23 1180.77C2147.31 1180.59 2160.95 1176.63 2161.37 1166.76C2068.11 1103.39 2016.62 999.38 1945.03 914.05V914.04ZM1319.44 867.61C1272.92 835.52 1205.2 824.06 1149.74 833.31C1130.16 836.58 1042.29 867.98 1048.23 893.76L1051.23 898.75C1142.17 848.29 1250.01 858.88 1341.02 902.62C1354.57 892.87 1328.03 873.52 1319.44 867.6V867.61ZM907.51 900.08C873.51 933.13 849.29 990.01 893.2 1024.97C909.92 1027.39 915.61 1014.36 914.3 999.81C911.25 975 891.68 993.03 887.09 986.92C884.97 931.9 959.2 855.35 1012.15 894.05C1005.81 903.13 996.76 912.64 1006.24 923.82H1024.24L1033.19 905.9C1033.78 891.65 1028.61 884.54 1018.3 875.75C975.52 850.99 939.08 869.38 907.5 900.08H907.51ZM1477.44 899.64C1450.1 874.46 1391.19 856.36 1363.22 888.8C1331.69 925.37 1404.12 963.53 1380.27 898.88C1440.09 874.67 1502.16 945.24 1498.22 1002.81L1481.72 997.12L1472.35 1012.09C1478.46 1079.49 1563.21 982.69 1477.44 899.65V899.64ZM1619.72 1133.32C1561.24 1129.25 1531.62 1079.29 1491.32 1050.73C1484.74 1046.07 1475.31 1049.65 1466.14 1039.91C1449.77 1022.51 1459.21 1001.38 1465.36 982.87C1461.12 964.34 1425.96 930.05 1407.37 932.75C1391.82 935.01 1380.3 965.23 1347.46 934.58C1276.88 868.72 1154.01 854.2 1066.9 904.47C1044.13 917.61 1037.74 943.94 1006.14 940.01C970.82 905.68 940.38 942.27 920.72 972.43C925.26 991.52 937.08 1010.93 921.22 1028.8C865.58 1055.47 828.98 1112.14 763.13 1120.71C747.85 1378.32 762.5 1326.47 882.27 1522.81C1003.94 1399.91 1067.47 1505.9 1187.27 1416.81C1273.03 1488.45 1356.29 1436.76 1437.18 1486.87C1445.54 1492.87 1478.8 1534.47 1484.97 1532.7C1625.55 1328.76 1628.35 1413.07 1619.72 1133.32ZM900.25 968.82L911.22 966.8C943.78 911.88 950.91 928.63 984.18 899.81L977.35 896.74C943.14 904.03 903.66 930.22 900.24 968.82H900.25ZM1465.36 931.75C1452.81 918.57 1422.89 899.68 1404.4 904.97L1405.14 912.94C1435.81 926.27 1461.78 949.38 1477.61 978.92L1487.91 972.32C1481.66 959.57 1475.14 942.01 1465.37 931.75H1465.36ZM482.26 952.81L495.93 947.45L491.25 930.88L482.26 952.82V952.81ZM1903.94 949.18C1894.89 945.42 1895.14 959.5 1896.71 965.37L1902.31 971.77C1924.2 976.65 1909.11 958.3 1903.95 949.18H1903.94ZM492.22 1046.81C491.04 1017.68 507.51 1006.27 520.48 983.81C473.93 933.77 451.7 1020.63 492.22 1046.81ZM1889.68 985.26C1885.12 986.18 1865.82 998.11 1866.41 1003.53C1890.3 1021.69 1888.6 1047.36 1901.18 1068.79C1924.99 1047.14 1941.5 976.28 1889.68 985.26ZM452.21 1010.81C453.15 1010.18 456.3 998.61 451.26 996.89C441.05 997.87 444.19 1016.19 452.21 1010.81ZM595.45 1007.62C592.27 1005.71 583.62 998.75 580.24 1003.87C601.84 1037.02 608.89 1063.68 606.07 1103.64C605.75 1108.11 590.61 1165.18 601.22 1162.81C626.39 1122.81 643.87 1036.68 595.45 1007.62ZM592.91 1273.48C577.81 1289.49 605.94 1316.18 588.79 1320.56C582.62 1322.13 580.74 1318.43 577.38 1314.68C535.82 1268.48 637.09 1075.25 565.29 1014.77C544.58 997.32 517.32 1003.05 511.23 1030.81C498.04 1090.91 571.89 1098.34 534.25 1042.83C635.64 1056.18 516.59 1274.69 559.37 1330.69C569.5 1342.21 597.99 1342.12 608.31 1329.89C626.2 1310.92 616.14 1248.85 592.91 1273.48ZM1939.24 1010.88L1938.98 1028.92L1950.21 1029.96C1955.68 1021.42 1949.23 1010.58 1939.23 1010.89L1939.24 1010.88ZM841.04 1071.64C855.24 1060.91 864.42 1052.88 873.47 1036.86L859.54 1018.99C823.43 1056.76 775.35 1088.95 721.67 1093.24L716.6 1098.21C740.9 1183.16 718.06 1271.07 728.29 1357.78C740.08 1457.7 833.45 1501.44 881.51 1580.7L887.42 1579C950.98 1461.28 1093.92 1521.51 1189.31 1454.85C1280.92 1525.05 1421.71 1468.23 1478.83 1588.23L1485.32 1590.02C1524.32 1522.78 1619.35 1476.92 1645.83 1403.4C1679.49 1309.95 1633.23 1206.83 1665.95 1112.28L1660.74 1107.32C1603.23 1104.67 1567.25 1066.01 1525.38 1032.72C1492.33 1040.77 1538.96 1082.25 1551.31 1090.76C1574.49 1106.74 1608.58 1116.74 1636.26 1120.81C1627.38 1201.27 1651.02 1286.83 1624.77 1364.34C1598.17 1442.9 1515.87 1481.56 1490.23 1560.82C1487.06 1563.21 1455.16 1520.17 1450.25 1515.82C1373.54 1453.75 1284.36 1501.29 1187.23 1434.63C1088.92 1507.17 955.13 1432.63 883.24 1554.78C733.53 1312.4 748.77 1409.11 745.11 1108.69C780.88 1105 812.23 1093.42 841.04 1071.65V1071.64ZM1850.23 1060.83C1817.4 1102.23 1864.95 1114.27 1878 1073.58C1897.11 1014.01 1828.22 1000.39 1803.26 1054.83C1760.5 1136.08 1859.12 1295.91 1795.54 1340.68L1790.11 1329.77C1802.12 1313.52 1803.64 1275.42 1774.42 1288.01C1736.74 1379.98 1849.57 1398.29 1834.19 1281.87C1836.49 1226.99 1768.42 1067.22 1850.23 1060.84V1060.83ZM1790.24 1186.8C1780.32 1130.31 1763.72 1074.61 1804 1025.5L1799.21 1020.66C1761.5 1035.98 1752.3 1082.69 1756.75 1119.32C1757.48 1125.3 1779.9 1197.72 1790.24 1186.8ZM514.25 1092.83C524.96 1128.18 549.89 1170.42 531.27 1206.81C514.01 1156.26 507.48 1090.84 471.02 1049.03C458.32 1034.46 444.58 1018.22 427.15 1038.73C401.98 1068.36 444.34 1106.35 457.31 1132.73C473.65 1165.93 482.81 1201.68 482.22 1238.8L475.27 1236.77C453.22 1186.54 448.82 1110.23 388.68 1089.32L368.07 1097.64C357.42 1127.89 386.93 1144.97 399.9 1166.14C466.36 1274.62 375.6 1405.63 251.18 1396.87C230.17 1395.39 148.31 1362.46 141.26 1364.78C139.55 1364.79 139.88 1368.87 140.18 1369.81C270.05 1415.83 245.27 1528.23 242.67 1641.37C287.78 1701.83 324.31 1767.62 352.2 1837.84C399.9 1866.2 454.03 1883.44 493.5 1924.36C568.24 1889.32 621.65 1957.36 647.19 2018.8C688.65 1977.62 699.97 1921.93 751.59 1889.18C805.27 1855.13 870.57 1849.13 932.86 1850.45C985.75 1788.56 1168.73 1714.32 1122.99 1617.03L1112.2 1617.85C1143.79 1673.44 1093.52 1703.57 1043.21 1704.95C994.03 1706.29 954.86 1683.81 911.18 1665.59L903.15 1670.84C906.37 1731.1 825.49 1718.88 808.84 1673.14C768.63 1689.56 738.65 1670.75 741.34 1626.69C707.74 1610.49 630.16 1709.36 636.43 1729.49C661.27 1740.96 674.85 1766.8 658.22 1791.82C638.66 1821.25 581.12 1790.23 561.15 1772.88C550.86 1763.94 536.13 1737.59 530.18 1733.85C522.32 1728.92 513.07 1731.58 503.19 1724.84C488.06 1714.5 490.12 1696.5 483.35 1684.69C466.52 1655.33 417.11 1672.85 422.69 1622.38C424.22 1608.53 437.25 1604.73 435.83 1596.37C409.23 1552.7 362.12 1503.6 391.83 1449.45C403.18 1428.77 429.33 1416.74 452.02 1426.01C462.46 1434.1 467.86 1447.86 460.2 1459.77C465.13 1476.14 518.23 1419.77 521.6 1411.84C481.13 1383.28 489.57 1333.65 544.22 1336.81C507.05 1257.97 582.71 1169.1 553.12 1092.69C536.45 1100.57 530.87 1096.96 514.22 1092.83H514.25ZM1967.48 1057.58C1906.72 1009.1 1870.74 1187.55 1857.21 1222.8C1841.25 1188.41 1861.51 1147.46 1872.03 1114.14L1831.44 1109.11C1804.36 1188.87 1878.79 1281.09 1832.45 1359.39C1834.68 1367.73 1872.16 1361.63 1876.27 1391.76C1878.49 1407.99 1870.47 1429.27 1852.17 1431.74C1842.38 1442.57 1899.03 1506.15 1911.42 1490.93C1907.34 1467.56 1913.79 1453.19 1939.12 1452.77C2036.96 1482.2 1968.94 1576.74 1926.55 1624.32C1924.66 1631.91 1933.07 1635.44 1934.08 1641.97C1943.13 1700.44 1909.46 1676.82 1885.54 1701.1C1871.88 1714.96 1870.4 1744.94 1858.14 1751.71C1847.83 1757.4 1839.83 1752.45 1832.24 1755.81C1754.45 1873.6 1644.38 1809.94 1726.28 1749.31C1733.61 1725.29 1658.01 1625.49 1621.05 1640.72C1625.43 1690.48 1596.33 1699.66 1554.24 1685.73C1543.44 1740.04 1461.58 1737.76 1463.96 1680.11C1463.32 1677.36 1461.41 1677.32 1459.18 1676.71C1454.53 1675.44 1386.81 1707.12 1368.86 1710.58C1305.44 1722.77 1211.22 1692.22 1262.26 1613.86C1261.21 1609.62 1257.55 1611.23 1253.41 1614.98C1189.27 1686.04 1340.95 1786.04 1386.23 1827.83C1446.2 1876.73 1432.95 1854.29 1502.73 1865.33C1627.84 1880.15 1638.06 1964.41 1709.29 2042.79L1713.84 2039.39C1715.74 2000.82 1771.96 1946.79 1809.2 1942.75C1831.4 1940.34 1844.27 1948.25 1864.68 1952.32C1903.74 1914.85 1954.36 1896.06 2001.33 1870.89C2029.33 1796.37 2071.61 1736.68 2123.8 1677.36C2124.74 1568.92 2117.61 1415.41 2262.22 1405.76C2265.13 1384.01 2164.58 1422.98 2158.65 1424.21C2025.84 1451.73 1918.64 1316.24 1987.83 1197.39C2000.64 1175.38 2027.74 1162.91 2025.32 1132.66C2020.09 1067.41 1956.49 1148.81 1945.9 1169.46C1942.38 1176.32 1914.69 1265.4 1908.26 1260.79C1890.48 1190.03 1999 1101.9 1967.47 1057.55L1967.48 1057.58ZM2004.24 1098.81C2011.2 1091.94 1982.72 1063.96 1993.22 1096.84C1994.67 1099.43 2003.66 1099.39 2004.24 1098.81ZM2050.25 1150.81C2052.56 1146.49 2042.81 1131.97 2039.28 1132.83L2038.49 1150.56L2050.25 1150.81ZM371.89 1328.37C420.65 1274.63 412.06 1134.46 317.68 1141.25C278.27 1149.59 279.49 1218.47 311.03 1200.59L331.65 1161.08C392.63 1182.03 390.82 1279.66 366.26 1327.83C366.35 1329.6 370.7 1329.22 371.89 1328.37ZM2024.23 1368.81C2002.74 1314.35 1993.48 1223.3 2053.27 1190.97L2071.21 1230.83L2081.08 1234.77C2131.09 1196.47 2059.49 1139.49 2017.46 1183.04C1975.91 1225.13 1967.25 1336.94 2024.22 1368.8L2024.23 1368.81ZM166.23 1348.83C161.49 1319.81 81.9799 1332.46 88.2199 1347.82L166.23 1348.83ZM408.99 1514.07C469.86 1576.43 630.44 1438.51 571.29 1360.77C551.26 1339.18 510.92 1345.75 519.15 1380.93L529.41 1392.71C539.17 1393.54 531.45 1361.1 551.74 1367.4C563.06 1370.91 561.32 1407.61 559.75 1417.34C552.15 1464.28 493.73 1505.24 447.35 1498.72C442.15 1497.99 406.97 1483.18 417.54 1474.75C472.84 1471.34 429.81 1425.14 406.52 1458.11C395.1 1474.28 394.83 1499.57 408.99 1514.08V1514.07ZM114.25 1360.83L119.29 1368.83L134.19 1363.81L114.25 1360.82V1360.83ZM2294.23 1394.81C2278.14 1358.53 2222.87 1360.97 2200.12 1389.76L2203.16 1394.75C2233.54 1381.52 2263.91 1383.94 2294.23 1394.81ZM1838.74 1416.35L1855.15 1412.73C1863.73 1385.26 1857.31 1371.49 1827.37 1371.01C1758.56 1397.87 1804.48 1502.92 1848.97 1534.09C1880.36 1556.08 1962.13 1572.9 1975.96 1525.55C1992.49 1468.92 1925.56 1459.52 1926.08 1489.73C1926.41 1508.94 1958.68 1503.14 1956.23 1510.79C1880.49 1557.72 1784.4 1466.99 1827.54 1391L1838.74 1416.35ZM183.04 1410C84.0799 1327.07 -22.4501 1454.61 31.4799 1554.58C60.66 1608.67 131.63 1606.1 138.89 1540.52C145.43 1481.41 78.9899 1488.8 92.7499 1535.32C94.6599 1541.78 110.32 1555.08 105.39 1560.97C53.7199 1569.22 30.01 1525.41 37.16 1478.74C45.3899 1424.99 118.78 1384.55 164.33 1421.73C227.81 1473.55 210.34 1579.79 199.29 1650.74C255.25 1717.54 296.98 1794.74 335.39 1872.67L343.69 1880.37C397.57 1897.34 450.16 1919.1 488.75 1961.55C621.47 1913.99 664.2 2153.97 537.19 2158.76C514.56 2159.61 487.54 2142.93 486.09 2119.12C485.84 2114.99 489.32 2111.57 493.44 2111.95C595.59 2121.47 529.12 1992.16 471.35 2044.94C435.24 2077.92 457.94 2166.72 513.43 2174.64C686.28 2199.31 658.2 1883.59 494.21 1944.05C449.06 1904.18 399.87 1872.2 342.09 1853.97C318.25 1777.36 274.64 1707.79 223.47 1646.42C230.7 1573.29 246.15 1462.9 183.04 1410.01V1410ZM609.6 1415.18C596.36 1424.82 558.15 1517.76 552.4 1531.97C540.63 1640.01 655 1553.1 697.1 1526.67C723.11 1478.51 680.89 1475.75 658.18 1453.88C644.19 1440.41 636.12 1405.67 609.6 1415.18ZM509.12 1451.69C497.04 1462.43 483.91 1470.78 472.26 1481.78C475.66 1497.74 544.03 1443.97 539.97 1426.04L534.29 1422.84C527.7 1431.95 517.36 1444.37 509.12 1451.7V1451.69ZM2321.37 1611.91C2435.25 1396.21 2097.17 1298.02 2141.81 1681.39C2084.24 1739.93 2039.91 1807.1 2013.23 1884.81C1958.36 1899.36 1910.62 1931.33 1868.76 1968.88C1748.3 1918.44 1678.99 2093.16 1754.15 2173.94C1798.56 2221.67 1888.33 2206.6 1900.1 2137.66C1909.73 2081.21 1858.31 2030.16 1816.3 2085.86C1799.98 2132.56 1825.35 2142.37 1862.36 2139.8C1866.61 2139.5 1870 2143.29 1869.17 2147.47C1863.62 2175.51 1828.08 2187.97 1800.61 2181.44C1686.46 2154.3 1751.95 1945.03 1870.81 1990.51C1899.48 1960.29 1937.17 1938.87 1975.83 1923.38C1988.43 1918.33 2015.65 1917.15 2023.18 1906.73C2054.6 1822.47 2108.14 1749.62 2169.42 1684.86C2160.08 1618.18 2148.43 1432.28 2259.3 1450.75C2339.06 1464.03 2355.08 1610.88 2262.24 1598.79C2268.74 1580.44 2280.4 1560.99 2265.4 1542.65C2197.08 1517.87 2229.51 1700.32 2321.38 1611.89L2321.37 1611.91ZM1734.96 1592.11C1756.52 1605.34 1775.5 1622.57 1802.32 1605.9C1848.73 1574.52 1779.28 1480.61 1775.77 1440.3C1771.29 1430.71 1751.46 1433.02 1744.3 1437.89C1727.5 1484.13 1663.36 1479.29 1664.49 1529.61C1665.24 1562.84 1691.53 1559.85 1710.13 1571.94C1717.95 1577.02 1728.39 1588.08 1734.96 1592.12V1592.11ZM1837.79 1443.3L1828.24 1442.81C1817.02 1467.33 1895.71 1527.26 1905.36 1512.92L1903.15 1502.91C1875.04 1489.88 1855.34 1468.06 1837.79 1443.3ZM1354.26 1670.81L1466.39 1615.98C1449.59 1483.16 1272.14 1533.05 1190.75 1473.18C1101.73 1525.84 928.66 1479.32 901.29 1606.79L1009.21 1663.94L1014.44 1659.8C981.97 1562.72 1107.92 1512.04 1168.33 1579.7C1176.79 1589.18 1175.88 1601.83 1187.04 1604.64C1215 1528.45 1346.77 1538.38 1356.21 1619.86C1358.19 1636.91 1354.17 1653.96 1354.27 1670.81H1354.26ZM608.25 1598.82C548.77 1614.91 529.4 1560.66 538.22 1510.82L480.43 1544.08C479.88 1546.83 507.38 1583.77 511.12 1590.94C513.73 1595.94 512.87 1609.74 517.34 1614.72C521.25 1619.07 538.71 1622.19 550.28 1633.78C558.46 1641.96 573.01 1674.05 575.3 1674.76C577.47 1675.43 579.98 1675.06 581.22 1672.8L608.24 1598.82H608.25ZM1828.24 1537.82V1585.82C1828.24 1615.21 1780.68 1634.15 1756.72 1617.17L1750.24 1619.87L1782.26 1698.83C1787.14 1703.01 1809.45 1661.13 1816.16 1655.73C1823.86 1649.53 1843.51 1644.78 1847.21 1640.79C1850.11 1637.66 1859.17 1608.33 1864.24 1599.71C1868 1593.32 1894.65 1569.82 1888.25 1562.84C1865.01 1563.47 1848.64 1550.29 1833.15 1534.89L1828.25 1537.84L1828.24 1537.82ZM469.53 1551.54C463.36 1546.28 454.03 1543.06 446.84 1539.21L442.27 1541.78C476.14 1571.85 497.8 1606.93 482.29 1653.63L493.97 1669.74C534.23 1659.01 553.79 1679.1 573.22 1710.8C582.5 1675.43 535.18 1632.09 503.27 1624.8C501.86 1600.84 488.2 1567.46 469.54 1551.53L469.53 1551.54ZM612.27 1762.81C577.05 1652.93 757.71 1476.36 796.34 1631.92L794.39 1637.98L764.2 1621.7C747.01 1696.8 839.16 1662.84 813.83 1600.24C793.88 1550.95 711.91 1547.32 670.43 1568.01C610.64 1597.84 572.85 1713.49 599.18 1772.89C611.31 1800.26 654 1789.47 645.35 1756.72C638.29 1738.51 617.13 1766.07 612.28 1762.81H612.27ZM1000.26 1818.8C1087.29 1804.04 1236.72 1674.66 1155.13 1582.93C1075.88 1493.83 945.96 1681.88 1092.25 1677.44C1122.67 1662.89 1103.99 1607.83 1071.84 1623.53L1074.46 1651.92L1065.72 1654.51C988.31 1565.05 1239.57 1568.17 1098.2 1729.78C1068.68 1763.06 1027.48 1785.27 1000.25 1818.8H1000.26ZM1925.81 1572.43C1926.91 1569.79 1926.59 1567.22 1925.34 1564.72L1919.77 1563.18C1882.76 1575.66 1865.52 1612.99 1860.44 1649.53C1825.38 1653.52 1790.19 1690.94 1790.21 1725.95C1797.13 1731.33 1814.19 1700.52 1822.82 1696.2L1874.34 1693.33C1887.77 1680.68 1876.47 1662.71 1877.08 1646.15C1878.62 1599.36 1900.99 1595.25 1925.81 1572.44V1572.43ZM1310.98 1651.56C1305.86 1658.93 1305.74 1659.7 1296.13 1659.99C1287.91 1653.13 1315.62 1615.11 1280.76 1626.36C1245.52 1637.73 1264.66 1712.68 1320.92 1676.51C1384.19 1635.83 1296.73 1519.64 1222.35 1579.94C1159.59 1630.82 1203.89 1725.74 1254.34 1767.65C1273.32 1779.83 1343.22 1831.5 1364.22 1828.81C1326.64 1780.13 1217.24 1712.94 1226.21 1641.78C1246.66 1561.31 1351.01 1603.75 1310.97 1651.56H1310.98ZM442.28 1618.82C436.38 1638.21 442.56 1653.6 465.05 1644.62C482.67 1621.15 467.72 1582.3 445.23 1566.83C444.45 1588.98 471.26 1609.94 453.28 1632.81L442.28 1618.82ZM1725.5 1607.56C1685.88 1565.73 1610.46 1550.43 1566.29 1593.86C1507.01 1652.15 1606.05 1725.52 1603.23 1636.81L1570.26 1650.8C1562.49 1599.7 1610.16 1580.66 1653.35 1592.71C1676.41 1599.14 1721.01 1650.55 1731.7 1672.36C1747.13 1703.87 1757.62 1746.41 1748.16 1780.75C1745.1 1783.9 1721.31 1756.81 1716.4 1779.96C1713.97 1796.31 1721.07 1811.11 1739.19 1808.84L1756.14 1801.69C1785.31 1747.49 1767.12 1651.48 1725.5 1607.54V1607.56ZM763.64 1599.41C716.68 1575.34 658.74 1624.31 646.24 1671.82C678.49 1635.61 714.81 1598.3 766.23 1606.81L763.64 1599.41ZM1917.72 1672.29C1921.33 1669.23 1924.04 1652.41 1920.73 1647.32L1915.28 1642.83L1909.24 1654.77C1896.85 1640.98 1910.26 1620.33 1917.86 1607.38L1915.25 1596.88C1888.54 1607.75 1871.78 1688.46 1917.71 1672.29H1917.72ZM1689.03 1654.01C1699.09 1662.59 1711.69 1683.92 1723.24 1690.82C1726.51 1646.41 1631.92 1575.65 1598.29 1617.82C1642.41 1620.49 1656.82 1626.54 1689.03 1654.01ZM1024.22 1684.86C986.15 1669.79 905.04 1612.19 865.87 1625.46C824.77 1639.38 820.85 1710.25 873.72 1695.29L884.38 1683.97L882.11 1663.94L854.28 1659.81C892.77 1613.44 982.1 1700.32 1020.28 1689.87L1024.21 1684.86H1024.22ZM1482.75 1702.34C1540.4 1743.41 1550.33 1643.2 1488.92 1629.51C1478.34 1628.6 1348.72 1684.47 1346.31 1691.89C1341.95 1705.31 1375.77 1694.23 1379.54 1693.12C1417.4 1681.96 1480.24 1630.25 1510.25 1672.8L1484.25 1673.83C1479.82 1678.12 1480.24 1697.69 1482.75 1702.34ZM524.26 1698.83C547.64 1710.28 543.21 1744.94 567.19 1754.82C576.65 1751.34 552.36 1679.81 520.49 1679.81C500.42 1679.81 494.2 1716.97 520.95 1714.6L524.26 1698.83ZM1830.82 1725.47L1837.32 1724.74L1841.54 1738.6C1859.12 1740.2 1860.07 1722.92 1857.85 1710.21C1827.43 1672.39 1780.39 1767.12 1792.15 1775.97C1816.77 1774.44 1819.32 1741.91 1830.82 1725.46V1725.47ZM1385.95 1861.06C1313.13 1820.58 1220.11 1791.89 1187.13 1706.89L1180.21 1702.83C1149.91 1794.19 1047.66 1809.58 976.2 1855.86C996.15 1866.37 1001.64 1870.16 1011.18 1891L1112.23 1835.76L1112.29 1843.93C1067.99 1875.69 1023 1915.38 968.16 1925.79L966.31 1933.51C1004.64 2044.61 1091.16 1910.48 1132.26 1875.91L1139.27 1876.79C1127.29 1923.45 1019.9 1988.86 1055.32 2042.69C1063.14 2054.57 1081.03 2062.99 1095.05 2060.71C1132.27 2054.65 1151.7 1935.93 1163.6 1905.25C1164.85 1902.03 1167.13 1893.71 1172.15 1894.84C1181.61 1954.24 1140.24 2017.56 1146.12 2075.89C1151.95 2133.69 1204.01 2123.28 1208.25 2069.89C1212.94 2010.8 1182.34 1955.53 1186.2 1896.84C1221.03 1906.29 1204.36 2118.99 1298.13 2051.2C1343.15 1998.08 1233.89 1922.43 1220.2 1876.84C1262.29 1896.97 1300.76 1985.56 1351.22 1980.87C1373.45 1978.41 1394.59 1953.43 1389.28 1930.84C1347.75 1924.34 1288.89 1879.66 1257.23 1854.78C1252.83 1850.61 1250.27 1847.71 1248.27 1841.79C1251.96 1830.4 1294.65 1867.61 1299.76 1870.81C1314.55 1880.09 1329.96 1888.59 1345.41 1896.75L1353.32 1894.92C1353.32 1874.96 1368.44 1868.54 1386.19 1866.78L1385.94 1861.05L1385.95 1861.06ZM776.26 1900.81C819.12 1889.29 862.5 1885.83 904.99 1900.71L913.99 1872.12L909.24 1868.82C864 1865.81 818.87 1874.06 778.25 1893.82L776.26 1900.8V1900.81ZM1144.97 2114.1C1135.46 2104.1 1129.68 2086.85 1126.38 2073.64C1074.06 2097.28 1026.1 2049.6 1029.38 1996.69C980.77 1996.11 927.81 1950.23 955.3 1900.81L969.65 1910.41L984.41 1905.97C1004.87 1860.61 938.52 1862.59 923.81 1901.38C900.38 1963.16 955.06 2006 1009.34 2016.73C1015.4 2070.07 1057.08 2107.89 1112.03 2096.97C1130.18 2180.72 1219.89 2174.38 1241.24 2096.87C1297.21 2117.98 1336.18 2069.51 1348.27 2019.69C1404.63 2021.02 1463.02 1955.09 1431.14 1900.93C1416.51 1876.08 1366.93 1867.52 1368.22 1899.69C1369.57 1933.57 1400.18 1906.35 1405.17 1910.9C1426.13 1960.44 1375.7 2003.07 1327.14 2000.69C1334.41 2056.27 1280.67 2100.93 1228.15 2077.7C1221.12 2116.58 1178.36 2149.21 1144.98 2114.11L1144.97 2114.1ZM1600.23 1924.81C1611.96 1913.58 1536.62 1886.82 1530.64 1885.43C1520.34 1883.04 1443.91 1873.07 1442.12 1878.19L1455.53 1910.52C1503.73 1894.31 1554.62 1906.99 1600.24 1924.81H1600.23ZM656.27 2066.82L735.31 1988.76C693.61 1970.24 656.05 2030.23 656.27 2066.82ZM1621.63 1998.11L1620.01 2000.31C1617.66 2003.5 1618.96 2008.02 1622.62 2009.52C1646.95 2019.45 1663.31 2040.6 1677.86 2062.2C1682.09 2068.49 1693.5 2100.81 1701.21 2098.8C1699.15 2054.62 1678.67 1996.26 1627.3 1995.28C1625.06 1995.24 1622.95 1996.32 1621.62 1998.12L1621.63 1998.11ZM770.65 2072.28L775.7 2072.17C782.7 2072.01 789.01 2067.83 791.79 2061.41C823.02 1989.37 696.66 1983.61 658.26 2112.8C691.91 2088.78 708.25 2025.7 758.57 2039C763.07 2040.19 765.88 2044.68 765 2049.26L762.45 2062.59C761.48 2067.69 765.45 2072.39 770.65 2072.28ZM1585.83 2055.66C1586.67 2052.79 1596.25 2046.81 1599.25 2046.81L1621.25 2050.81C1634.76 2050.81 1678.49 2125.72 1698.75 2137.69C1700.07 2138.47 1701.76 2138.14 1702.67 2136.91L1704.2 2134.85C1675.6 2099.03 1659.83 2029.26 1607.01 2021.06C1577.62 2016.49 1546.43 2026.37 1552.42 2061.66C1557.26 2082.1 1575.1 2094.61 1587.98 2078.42C1590.81 2074.86 1590.74 2069.79 1587.91 2066.23C1585.54 2063.25 1584.77 2059.31 1585.84 2055.66H1585.83Z" fill="white"/>
<path d="M1349.5 957.56C1380.28 984.28 1389.91 1020.45 1364.3 1055.28C1338.69 1090.11 1281.5 1092.87 1241.54 1091.1L1233.19 1124.88C1341.88 1178.01 1358.68 1294.27 1227.16 1328.71C1194.26 1499.33 944.23 1376.84 1086.8 1260.31C1072.47 1206.34 1112.8 1164.84 1163.77 1157.32L1168.22 1149.87L1091.33 1118.67C1088.28 1118.32 1054.56 1142.17 1046.02 1145.56C863.28 1201.1 879 1005.32 1046.31 1021.85C1083.56 901.85 1261.38 891.33 1349.51 957.54L1349.5 957.56ZM1249.24 1024.82C1261.35 1023.13 1276.7 1026.06 1289.24 1024.82L1291.26 1028.82L1277.5 1039.33L1278.02 1047.98C1290.33 1062.69 1367.29 1015.9 1298.23 981.82C1243.13 954.63 1139.94 958.88 1112.33 1023.6C1114.25 1028.05 1202.61 1042.38 1207.56 1042.17C1216.66 1041.77 1234.33 1026.9 1249.23 1024.82H1249.24ZM1031.8 1071.38C1019.24 1071.94 960.56 1082.05 964.54 1101.38C969.99 1127.82 1046.91 1120.29 1063.15 1104.75C1071.55 1093.36 1058.67 1082.19 1054.24 1071.82C1049.21 1069.21 1037.81 1071.11 1031.8 1071.38ZM1138.26 1080.85C1140.85 1098.15 1161.29 1100.32 1173.77 1106.5L1179.36 1105L1185.32 1086.82L1138.26 1080.85ZM1230.39 1210.66L1244.19 1209.76C1258.92 1198.12 1245.71 1187.34 1233.24 1182.8L1230.39 1210.67V1210.66ZM1176.24 1289.82V1249.82L1148.27 1258.81C1126.04 1220.55 1180.28 1213.81 1171.18 1184.82C1100.58 1203.96 1122.87 1298.48 1176.24 1289.81V1289.82ZM1226.24 1250.82V1291.82L1229.68 1296.91C1262.11 1296.59 1298.22 1254.96 1273.24 1224.87C1261.14 1241.84 1249.18 1253.65 1226.24 1250.83V1250.82ZM1101.6 1281.13C1021.5 1350.01 1159.07 1439.41 1173.35 1328.83C1145.64 1315.87 1123.09 1303.32 1101.6 1281.13Z" fill="white"/>
<path d="M1467.5 784.08C1449.22 800.35 1431.81 816.75 1415.24 834.77C1400.85 783.03 1389.87 725.33 1348.28 688C1373.08 637.86 1423.29 600.78 1475.04 580.99L1553.96 727.54C1515.05 740.49 1496.46 758.32 1467.5 784.08ZM1469.65 603.45L1460.39 601.81C1425.05 623.42 1386.98 643.91 1366.25 682.02L1423.59 798.62L1534.31 717.68L1469.65 603.45Z" fill="white"/>
<path d="M1048.92 363.48C1091.66 319.86 1126.96 434.26 1089.3 470.87C1040.14 518.67 1016.15 396.92 1048.92 363.48ZM1069.24 380.87C1055.82 388.6 1058.93 458.96 1067.28 460.82C1079.45 463.52 1074.75 381.13 1069.24 380.87ZM1084.24 386.82V451.82L1092.22 454.82C1098.13 450.24 1098.59 392.33 1084.24 386.82ZM1054.23 390.83C1038.89 399.54 1045.26 424.2 1048.26 438.81C1056.75 447.3 1054.61 394.91 1054.23 390.83Z" fill="white"/>
<path d="M1329.73 357.15C1371.83 351.11 1389.05 478.92 1337.31 484.91C1290.28 490.36 1284.07 370.14 1329.73 357.15ZM1333.4 385.07L1332.62 385.11C1330.98 385.2 1329.57 386.25 1329.01 387.79C1324.76 399.38 1324.8 444.1 1328.29 459.58C1328.91 462.33 1332.07 463.64 1334.47 462.15L1336.25 461.05C1337.49 460.28 1338.24 458.93 1338.24 457.48V389.67C1338.24 387.03 1336.03 384.93 1333.39 385.07H1333.4ZM1348.24 467.82C1351.02 469.54 1353.79 467.9 1354.34 464.68C1357.08 448.66 1360.24 394.64 1350.36 385.01C1348.83 383.51 1346.24 384.63 1346.24 386.78L1347.24 450.83C1347.39 457.94 1346.56 466.8 1348.24 467.83V467.82ZM1313.9 444.95C1320.06 468.59 1321.9 465.32 1318.69 444.3C1315.25 421.82 1319.47 395.87 1320.4 387.11C1321.09 380.6 1316.94 380.78 1314.85 386.96C1310.17 400.82 1309.27 427.17 1313.9 444.95Z" fill="white"/>
<path d="M1191.67 333.26C1200.17 331.11 1212.81 332 1218.19 339.86C1240.99 365.33 1248.98 456.61 1201.12 456.82C1156.5 456.43 1153.26 349.81 1191.66 333.26H1191.67ZM1206.24 431.82C1210.53 414.16 1203.04 379.46 1206.24 359.82L1201.28 356.83C1190.18 357.42 1190.57 438.64 1201.24 438.77C1202.81 437.12 1205.76 433.77 1206.24 431.82ZM1219.94 361.16L1214.25 360.83L1218.03 431.65C1228.59 446.65 1228.69 394.06 1228.3 389.75C1227.37 379.6 1224.02 370.31 1219.94 361.16ZM1180.73 367.36C1176.28 383.49 1175.96 418.88 1186.24 433.82L1185.35 395.72C1185.24 394.82 1185.46 390.1 1185.88 387.32C1186.82 381.17 1187.83 370.62 1187.28 369.38L1185.25 364.88L1180.73 367.36Z" fill="white"/>
<path d="M1789.12 1525.96C1796.6 1544.73 1827.81 1590.56 1783.25 1594.97C1759.53 1597.32 1749.47 1574.44 1730.87 1563.2C1617.19 1519.19 1726.23 1508.39 1744.11 1459.69C1777.45 1442.27 1772.91 1478.33 1776.66 1497.41C1779.43 1506.09 1785.7 1517.39 1789.12 1525.96ZM1761.75 1475.32L1749.62 1474.64C1727.31 1524.57 1632.61 1522.25 1739.98 1558.08C1749.61 1563.09 1788.4 1603.49 1794.14 1571.65C1799.21 1531.58 1766.69 1542.05 1761.75 1475.31V1475.32Z" fill="white"/>
<path d="M1009.04 703.58C994.95 725.66 980.15 746.81 969.19 770.82L882.14 711.78L937.13 620.79C969.39 637.51 998.7 660.93 1017.85 692.12C1018.03 697.76 1010.82 700.76 1009.03 703.57L1009.04 703.58ZM975.32 661.7C964.5 653.98 954.51 641.61 940.42 641L906.19 705.81L959.4 748.82L1000.25 689.59C1000.9 679.82 982.86 667.81 975.32 661.7Z" fill="white"/>
<path d="M681.14 1525.69C667.92 1537.71 647.56 1540.78 631.61 1549.18C612.46 1559.26 602.95 1582.92 577.28 1570.77C525.58 1546.31 609.95 1467.1 612.75 1433.34L630.35 1435.73C642.2 1467.61 665.51 1476.29 689.21 1496.86C692.66 1514.36 693.11 1514.82 681.15 1525.69H681.14ZM655.45 1489.62C644.07 1479.57 631.03 1470.73 624.26 1455.76L615.03 1456.62C616.25 1497.23 566.23 1517.29 577.23 1556.83C598.27 1564.99 611.3 1542.61 628.51 1534.09C657.45 1521.82 707.4 1518.91 655.45 1489.62Z" fill="white"/>
<path d="M1443.45 762C1440.55 764.25 1430.01 774.55 1428.23 773.88L1380.69 686.08C1402.1 658.57 1428.13 632.81 1462.98 623.35L1514.14 717.52C1485.54 729.19 1467.05 743.7 1443.46 762H1443.45ZM1460.05 640.99C1454.56 638.02 1400.29 674.41 1398.62 684.25L1433.52 750.71L1489.93 711.46L1460.05 640.99Z" fill="white"/>
</svg>
