<svg width="143" height="333" viewBox="0 0 143 333" fill="none" xmlns="http://www.w3.org/2000/svg">
<path d="M73.04 67.4899C73 68.1599 70.41 71.8399 73.03 71.9799C76.08 67.7199 75.45 60.4199 77.27 56.6899C77.96 55.2799 79.52 55.3799 80.23 53.6099C82.51 47.8999 80.65 36.2699 84 30.4799C86.54 26.0799 96.35 21.7699 101.33 23.2399C106.21 25.9699 106.13 29.0499 101.39 31.8699C97.38 34.2599 87.56 34.5199 86.11 36.5799L82.45 54.5399C86.74 60.0399 90.64 70.6899 80.24 71.1699L79.05 76.9699L92.04 75.9799L88.35 80.4399C88.2 81.7699 91.32 87.0699 92.52 88.0199C93.56 88.8399 95.56 88.7499 95.88 89.1199C96.09 89.3599 96.3 93.2699 97.19 95.3099C102.77 108.03 120.73 127.18 128.87 140.58C141.41 161.24 148.65 177.97 137.26 201.57C132.6 211.22 108.44 206.95 102.63 199.78C100.3 196.91 99.94 193.52 97.54 190.88L87.03 200.56C89.36 205.88 83.48 210.98 84.23 214.08C85.59 219.67 92.83 220.79 97.44 219.06L99.08 220.28C101.27 227.29 104.74 234.93 106.38 241.99C108.53 251.24 109.67 286.5 106.29 294.53C106.03 295.15 98.57 303.86 97.58 304.81C93.44 308.8 89.46 308.04 84.47 309.7C84.2 327.27 85.13 331.22 66.52 332.73C60.96 333.18 31.0801 333.33 28.5401 329.74C25.8701 322.43 25.16 315.5 26.97 307.86C23.5 306.8 19.67 304.74 17.01 302.3C14.88 300.35 8.35005 292.27 6.59005 289.73C-2.84995 276.06 4.14005 243.81 5.02005 227.34C6.29005 203.42 5.68005 179.41 8.08005 155.47C13.16 144.64 16.35 134.31 25.83 126.24C26.95 116.23 23.56 106.47 24 96.4299C24.29 89.9099 27.3001 84.3499 27.0401 77.9899L12.51 75.0199C9.17005 73.1799 8.76005 66.3599 12.73 65.2099L18.0301 65.0099C18.5201 56.2299 4.92005 62.4599 0.930049 57.6199L0.020049 55.4599C-0.309951 52.0899 3.55005 48.1399 6.67005 47.2799C10.38 46.8699 15.65 50.7899 18.6 50.9699C21.5501 51.1499 25.67 49.0399 29.05 50.0099L24.5 22.0699C21.63 16.1799 1.45005 13.0499 10.08 2.58995C15.86 -1.28005 26.6801 -1.27005 29.7801 5.80995C30.6001 7.68995 30.62 11.9999 31.24 12.8399C32.11 13.9999 39.1201 14.4499 40.6101 18.9699L42.2701 51.2799C45.1701 55.2199 45.6101 62.8999 51.0401 63.0099C48.1701 68.6899 46.99 72.3399 50 78.5699L68.6 77.0499C68.6 70.8899 69.75 64.5099 70.09 58.5399C70.43 52.5699 66.75 41.7799 77.03 43.0299C78.1 43.9699 73.03 50.6399 73.03 51.5199C73.03 56.7399 73.34 62.3499 73.03 67.4999L73.04 67.4899ZM40.0401 48.9999L37.55 27.0199C36.8 25.1499 28.82 22.2399 28.05 23.0399L31.92 47.4299L40.03 48.9999H40.0401ZM38.0401 66.9999L36.0201 68.4999L37.55 73.9799L38.0401 66.9999ZM32.5401 70.9899V71.9899C33.1901 71.6599 33.1901 71.3199 32.5401 70.9899ZM77.04 77.9799V72.9899H76.06L75.05 77.9699H77.04V77.9799ZM39.03 81.9799L38.5401 77.9899L37.0401 80.4699L39.0201 81.9799H39.03ZM86.03 81.9799C84.58 80.4999 84.22 82.0899 84.05 83.4699C83.21 90.1699 82.27 98.8599 82 105.5C81.9 107.91 83.34 110.14 83.05 112.37C82.62 115.74 78.28 117.77 80.19 124.29L82.08 125.51C97.61 121.19 100.54 136.72 94.47 147.84C91.56 153.19 83.88 157.61 82.51 162.86C81.35 167.29 82.36 172.33 82.04 176.87C84.07 179.21 90.68 164.6 96.91 177.5C98.94 181.71 98.91 189.59 101.75 191.91C108.11 197.11 126.57 197.18 133.95 193.77C135.9 191.02 107.91 144.11 104.51 136.94C98.96 125.24 94.52 112.18 89.24 100.25C88.54 98.6699 86.61 97.5899 86.21 96.2399C85.13 92.6199 87.81 91.5999 87.94 89.5099C88.07 87.4199 86.11 84.2799 86.02 81.9699L86.03 81.9799ZM90.04 91.9799H88.56L87.05 93.9599H88.53L90.04 91.9799ZM81.04 157.9C91.97 154.91 102.43 124.42 84.57 127.96C82.89 128.29 82.06 129.18 81.04 130.43V157.9ZM82.05 196.87L88.34 197.78C94.74 193.63 88.38 186.23 87.03 180.89C83.21 183.37 86.71 188.71 84.85 193.22C84 195.29 81.22 194.04 82.05 196.87Z" fill="#5C8745" fill-opacity="0.19"/>
</svg>
