<svg width="200" height="200" viewBox="0 0 200 200" fill="none" xmlns="http://www.w3.org/2000/svg">
<path d="M128.037 90.1732C132.637 83.5911 139.584 85.9341 141.925 90.8384C136.342 88.4481 131.582 99.3375 137.004 104.21C135.161 105.091 131.666 105.544 128.96 103.264C126.438 101.139 124.387 96.3555 128.037 90.1732Z" fill="#5C8745"  fill-opacity="1.00"/>
<path d="M116.454 138.252C110.045 135.861 108.646 126.997 111.652 122.463C111.97 121.982 112.401 121.34 112.764 120.891C118.352 113.953 126.699 115.508 128.913 120.478C126.399 116.404 113.406 129.392 116.454 138.252Z" fill="#5C8745"  fill-opacity="1.00"/>
<path d="M87.5692 148.173C93.5438 142.732 100.57 143.229 102.979 149.38C99.7577 145.701 89.523 152.325 88.487 160.559C85.2446 157.934 83.8903 152.233 87.5692 148.173Z" fill="#5C8745"  fill-opacity="1.00"/>
<path d="M61.2198 156.491C67.9938 151.731 73.666 156.875 72.9507 161.387C69.4375 156.362 63.5076 161.287 61.5985 166.807C57.7066 162.055 58.8478 158.269 61.2198 156.491Z" fill="#5C8745"  fill-opacity="1.00"/>
<path d="M48.2398 158.737C47.038 157.701 45.6786 157.23 44.5767 157.858C44.5136 157.895 44.4346 157.953 44.3742 157.995C43.1593 159.002 43.2645 161.577 44.6188 163.983C45.1447 164.919 45.7706 165.682 46.4201 166.263C39.9195 164.819 39.6355 156.638 41.2028 155.358C41.2817 155.305 41.3816 155.231 41.4631 155.184C43.6747 153.911 46.5778 155.905 48.2398 158.737Z" fill="#5C8745"  fill-opacity="1.00"/>
<path d="M124.719 69.6224C122.636 61.7255 131.516 55.8376 139.334 59.9267C141.875 61.2547 143.458 63.3269 144.144 65.5753C138.545 62.2645 131.34 65.5911 132.097 71.3106C132.182 71.9496 132.374 72.4624 132.529 72.8753C133.402 74.8265 135.011 76.165 136.82 76.9302C132.91 77.5272 128.058 76.0098 125.557 71.6998C125.284 71.1554 124.945 70.4823 124.719 69.6224Z" fill="#5C8745"  fill-opacity="1.00"/>
<path d="M111.002 113.004C109.756 112.804 108.543 112.289 107.444 111.382C104.446 108.912 102.9 103.553 105.74 98.0939C106.082 97.5074 106.508 96.7737 107.152 96.0032C112.262 89.8866 120.211 91.3514 122.284 98.0702C120.156 95.6877 115.557 96.9421 112.125 101.744C111.604 102.472 111.247 103.124 110.96 103.645C108.756 108.023 109.293 111.513 111.002 113.004Z" fill="#5C8745"  fill-opacity="1.00"/>
<path d="M132.729 43.4174C132.347 36.412 140.139 33.6771 143.529 37.619C139.395 39.2442 132.689 44.017 141.775 50.4597C136.184 50.2309 132.939 47.2936 132.729 43.4174Z" fill="#5C8745"  fill-opacity="1.00"/>
<path d="M104.962 128.756C100.878 126.031 92.4025 135.404 95.6975 140.973C80.0036 131.846 98.0458 115.97 104.962 128.756Z" fill="#5C8745"  fill-opacity="1.00"/>
<path d="M111.447 76.7541C110.905 77.6745 110.687 78.3398 110.453 79.0446C109.227 83.3651 110.865 86.6364 113.114 87.6357C113.406 87.7646 113.7 87.8593 113.997 87.925C111.844 88.5035 109.519 88.1853 107.526 86.6259C104.775 84.4722 103.118 79.7599 105.272 74.916C105.667 74.1403 106.037 73.4066 106.855 72.4862C110.666 68.2077 116.688 69.0256 119.517 73.0674C116.982 72.0339 113.514 73.2382 111.447 76.7541Z" fill="#5C8745"  fill-opacity="1.00"/>
<path d="M114.573 50.0707C114.515 50.3757 114.484 50.7859 114.46 51.091C114.416 53.91 115.875 55.9743 117.705 57.013C117.287 56.9814 116.861 56.9183 116.427 56.8237C113.085 56.0795 109.582 53.0185 109.359 48.598C109.361 48.2377 109.369 47.7565 109.419 47.3989C110.368 40.6012 120.098 39.1864 124.293 45.2347C124.348 45.3135 124.395 45.3951 124.445 45.474C120.916 43.2545 115.488 45.261 114.573 50.0707Z" fill="#5C8745"  fill-opacity="1.00"/>
<path d="M90.12 109.651C86.825 113.041 86.3937 116.512 87.0012 118.629C85.71 118.071 84.5687 117.141 83.7167 115.778C81.9048 112.878 81.9154 107.866 86.2202 103.719C86.6961 103.303 87.2878 102.782 88.0767 102.299C94.2275 98.5198 101.038 102.364 100.86 108.768C99.3264 106.035 94.1933 106.017 90.12 109.651Z" fill="#5C8745"  fill-opacity="1.00"/>
<path d="M135.648 14.8145C135.79 11.58 139.76 13.8389 141.314 15.0853C137.636 14.2333 138.104 17.197 138.267 18.5302C137.307 17.6782 136.46 16.7499 135.96 15.8663C135.834 15.6113 135.619 15.1826 135.648 14.8145Z" fill="#5C8745"  fill-opacity="1.00"/>
<path d="M120.984 30.4689C118.026 28.8148 117.003 26.3824 116.514 25.6172C116.364 25.341 116.175 24.9992 116.093 24.5837C115.223 20.2921 124.726 18.8063 129.647 22.4642C131.038 23.5003 131.695 24.6415 131.719 25.6908C131.564 25.5514 131.393 25.4147 131.209 25.2753C124.508 20.5156 119.783 27.2265 120.984 30.4689Z" fill="#5C8745"  fill-opacity="1.00"/>
<path d="M71.5913 138.743C71.2363 138.956 70.7866 139.269 70.45 139.503C67.5337 141.691 66.3766 143.966 66.3635 145.699C65.0276 144.715 63.9705 143.293 63.4209 141.441C62.4663 138.23 63.6313 133.723 68.4436 131.414C68.8433 131.246 69.3823 131.028 69.7978 130.907C75.641 129.195 80.6874 133.045 80.9477 137.928C79.2673 136.363 75.5226 136.382 71.5913 138.743Z" fill="#5C8745"  fill-opacity="1.00"/>
<path d="M116.732 8.86099C117.395 6.36017 127.388 7.0229 129.313 9.68413C129.318 9.69465 129.328 9.70252 129.334 9.71567C125.799 8.21675 119.167 8.17731 118.633 10.1916C118.547 10.5335 118.705 10.8201 118.839 11.0279C118.05 10.6729 117.403 10.2521 117.011 9.79191C116.866 9.59205 116.63 9.25807 116.732 8.86099Z" fill="#5C8745"  fill-opacity="1.00"/>
<path d="M100.828 64.2262C100.991 64.5233 101.233 64.894 101.417 65.1702C101.888 65.8171 102.387 66.3509 102.895 66.7743C102.34 66.8663 101.751 66.8926 101.133 66.84C98.1931 66.5955 94.8218 64.3497 94.0829 60.5183C94.0435 60.2001 93.9856 59.7715 93.983 59.4506C93.9304 54.0519 100.407 51.3539 104.849 54.1939C102.243 54.2308 97.8644 58.8669 100.828 64.2262Z" fill="#5C8745"  fill-opacity="1.00"/>
<path d="M95.3372 82.4684C93.5096 82.1475 90.8063 83.4913 88.4344 86.5102C87.7217 87.4148 87.3483 88.0643 86.9512 88.7533C85.5023 91.4408 85.1209 93.6971 85.4286 95.2328C83.4274 94.8909 81.6445 93.7602 80.6137 91.7327C79.1306 88.8138 79.6092 84.1382 83.3933 80.8458C84.0323 80.3436 84.6371 79.8676 85.689 79.4074C89.7387 77.6298 93.6464 79.3075 95.3372 82.4684Z" fill="#5C8745"  fill-opacity="1.00"/>
<path d="M101.98 35.4866C101.885 35.7101 101.804 36.0178 101.748 36.2492C101.543 37.4273 101.804 38.487 102.351 39.368C100.405 38.0295 98.9373 35.9546 99.1082 33.6169C99.1424 33.3618 99.2002 33.0252 99.2765 32.778C100.781 28.0604 109.895 28.468 112.882 33.1172C109.711 30.8452 103.515 31.7393 101.98 35.4866Z" fill="#5C8745"  fill-opacity="1.00"/>
<path d="M71.3861 114.382C70.6604 115.095 70.2581 115.665 69.8294 116.273C67.8677 119.265 67.4127 122.182 67.8966 124.141C66.4082 123.523 65.1117 122.271 64.3123 120.333C63.0264 117.217 63.576 112.341 67.1129 109.049C67.7046 108.555 68.2621 108.087 69.2193 107.661C73.5398 105.738 77.508 108.768 78.3022 113.27C76.8401 111.621 74.0684 111.747 71.3861 114.382Z" fill="#5C8745"  fill-opacity="1.00"/>
<path d="M46.2413 145.817C44.3479 143.44 43.4511 139.408 45.9493 136.171C46.165 135.924 46.4595 135.595 46.7067 135.377C49.4153 133.002 53.0679 133.634 55.5109 135.877C54.0356 135.564 52.4131 135.898 51.0272 137.123C50.8221 137.305 50.5776 137.576 50.3935 137.781C48.2792 140.439 46.2018 140.81 46.2413 145.817Z" fill="#5C8745"  fill-opacity="1.00"/>
<path d="M104.41 15.8242C104.373 16.1371 104.46 16.4132 104.528 16.6341C104.849 17.4072 105.54 18.0988 106.45 18.68C104.546 17.97 102.895 16.8839 102.351 15.5665C102.285 15.3456 102.195 15.0694 102.235 14.7565C102.558 11.9296 110.802 11.2459 114.794 14.0281C110.555 12.5844 104.673 13.4496 104.41 15.8242Z" fill="#5C8745"  fill-opacity="1.00"/>
<path d="M90.0673 11.2409C90.112 11.5328 90.2619 11.759 90.375 11.943C90.8589 12.5584 91.6557 13.0081 92.6208 13.3052C90.7274 13.1422 88.9682 12.5795 88.1451 11.5276C88.0294 11.3461 87.8821 11.1174 87.8347 10.8255C87.4166 8.19843 94.6746 5.51089 98.9688 7.01506C94.7903 6.78102 89.7097 9.03464 90.0673 11.2409Z" fill="#5C8745"  fill-opacity="1.00"/>
<path d="M85.8679 29.6014C83.062 27.7028 77.111 29.4568 76.8033 31.9366C76.7876 32.0707 76.8008 32.2521 76.8113 32.3889C76.9217 32.9806 77.3346 33.5249 77.9447 33.9667C75.8593 33.5328 74.2499 32.3836 73.9949 31.0294C73.9817 30.8742 73.9659 30.6613 73.9843 30.5061C74.3762 27.3505 82.6544 25.2073 85.3287 28.5733C85.597 28.9099 85.7706 29.2543 85.8679 29.6014Z" fill="#5C8745"  fill-opacity="1.00"/>
<path d="M81.2001 65.7987C80.8556 66.4561 80.6584 67.0373 80.498 67.5027C79.7774 69.9483 80.0484 72.0547 80.8478 73.5825C80.1798 73.359 79.5277 73.0066 78.9202 72.5096C76.6903 70.6846 75.2623 66.9557 76.848 63.3583C77.0478 62.9639 77.2977 62.4722 77.7053 61.9567C80.2692 58.7144 84.5582 58.7117 87.2931 60.9863C85.0631 61.3203 82.6911 62.9508 81.2001 65.7987Z" fill="#5C8745"  fill-opacity="1.00"/>
<path d="M69.1509 91.2435C68.4698 91.972 68.1043 92.54 67.7151 93.1396C65.7876 96.353 65.6403 99.2903 66.4687 100.976C64.4412 100.842 62.5899 99.761 61.5959 97.5889C60.3915 94.9593 60.9043 90.6914 64.2151 87.6225C64.7699 87.1544 65.2959 86.7152 66.2005 86.2866C69.5454 84.7088 72.7667 86.05 74.2972 88.6954C72.7588 88.6007 70.8812 89.3949 69.1509 91.2435Z" fill="#5C8745"  fill-opacity="1.00"/>
<path d="M94.6641 40.575C95.3057 41.5558 95.5502 42.5867 95.4845 43.5755C95.4819 43.5702 95.4792 43.5623 95.474 43.557C93.0783 39.8939 85.7547 40.9064 85.0236 45.0034C84.9868 45.2059 84.9763 45.4819 84.9711 45.6871C85.021 46.7836 85.4839 47.7251 86.1728 48.4693C83.9271 47.6436 81.9391 45.766 81.8207 43.1784C81.826 42.926 81.8391 42.5893 81.8838 42.3421C82.7779 37.3352 91.7346 36.0966 94.6641 40.575Z" fill="#5C8745"  fill-opacity="1.00"/>
<path d="M92.9994 27.7473C91.0219 27.0215 89.3205 25.7751 89.0681 24.2499C89.0549 24.0842 89.0471 23.8554 89.076 23.6924C89.5836 20.7629 97.6882 19.7583 101.17 22.5984C97.1228 21.0311 88.0241 22.7641 92.9994 27.7473Z" fill="#5C8745"  fill-opacity="1.00"/>
<path d="M53.3256 116.404C52.4236 116.496 51.8398 116.706 51.2245 116.93C47.8296 118.347 45.5128 121.627 45.7153 124.722C45.7469 125.192 45.8442 125.618 45.9704 126.023C44.3926 125.19 43.2408 123.578 43.0436 121.282C42.749 117.827 44.9685 114.242 48.3266 112.762C48.9367 112.531 49.5151 112.315 50.4145 112.239C53.6779 111.968 55.9027 114.093 56.4865 116.864C55.6029 116.465 54.5431 116.283 53.3256 116.404Z" fill="#5C8745"  fill-opacity="1.00"/>
<path d="M33.5452 137.174C33.2612 137.342 33.0666 137.55 32.9088 137.715C31.6124 139.309 32.0279 141.941 33.1061 143.716C33.9423 145.092 35.0493 145.912 36.1117 146.17C34.1763 146.993 31.5046 145.907 29.7243 142.98C28.2543 140.563 27.6889 136.979 29.4561 134.807C29.6691 134.581 29.9373 134.299 30.3238 134.068C33.0639 132.43 36.472 134.912 37.8763 138.362C36.6508 136.992 34.9757 136.319 33.5452 137.174Z" fill="#5C8745"  fill-opacity="1.00"/>
<path d="M75.5489 19.2584C75.5674 19.3373 75.6305 19.4267 75.6725 19.4924C75.9723 19.808 76.5745 19.9947 77.3161 20.0841C75.5121 20.1841 73.7897 19.9894 73.1823 19.3425C73.127 19.2636 73.0534 19.1585 73.035 19.0691C72.5617 17.1731 81.3395 13.8307 84.3347 15.8293C84.4925 15.9371 84.6187 16.0502 84.7108 16.1738C81.7287 15.1193 75.1624 17.7332 75.5489 19.2584Z" fill="#5C8745"  fill-opacity="1.00"/>
<path d="M66.6396 13.8995C66.6816 13.9627 66.7658 14.0257 66.8237 14.073C67.1892 14.2913 67.7808 14.365 68.4646 14.336C66.9104 14.6595 65.3326 14.7305 64.5858 14.2835C64.5121 14.2256 64.4122 14.1494 64.3675 14.081C63.3314 12.59 69.9609 8.66911 73.2506 9.90768C73.4241 9.97606 73.5714 10.0496 73.6924 10.139C70.7235 9.67623 65.8007 12.703 66.6396 13.8995Z" fill="#5C8745"  fill-opacity="1.00"/>
<path d="M34.8416 113.57C34.7259 113.598 34.6128 113.617 34.4971 113.664C34.0185 113.854 33.745 114.093 33.4505 114.348C31.707 116.07 31.4651 119.013 32.1278 121.03C32.8746 123.307 34.4787 124.317 35.9908 123.98C34.0711 126.518 30.742 126.029 29.0116 122.387C27.8888 120.025 27.731 116.381 29.6007 113.985C29.9189 113.625 30.2213 113.286 30.7761 112.975C32.1961 112.189 33.6582 112.544 34.8416 113.57Z" fill="#5C8745"  fill-opacity="1.00"/>
<path d="M25.6719 151.518C25.6298 151.552 25.5825 151.608 25.5431 151.647C24.7095 152.72 25.6062 155.105 26.7922 156.867C27.4811 157.893 28.2384 158.705 28.959 159.273C27.8782 159.549 25.9664 157.977 24.4991 155.329C23.4051 153.354 22.6531 150.774 23.584 149.788C23.626 149.754 23.6786 149.704 23.7233 149.672C24.6331 149.067 25.9822 149.93 27.1813 151.374C26.6028 151.163 26.0768 151.179 25.6719 151.518Z" fill="#5C8745"  fill-opacity="1.00"/>
<path d="M16.6389 129.989C16.7809 129.852 16.9545 129.684 17.2069 129.579C18.7558 128.937 20.5703 130.799 21.6485 133.224C20.8937 132.156 19.9576 131.509 19.124 131.854C18.9399 131.93 18.8084 132.056 18.7059 132.156C17.7829 133.232 18.0958 135.422 18.7743 137.002C19.6342 139.006 20.9306 140.092 21.8825 139.893C20.6597 141.491 18.2167 140.037 16.7283 136.579C15.8079 134.431 15.3846 131.454 16.6389 129.989Z" fill="#5C8745"  fill-opacity="1.00"/>
<path d="M19.8051 110.979C18.6875 112.328 18.606 114.905 19.1057 116.751C19.5632 118.442 20.4258 119.51 21.3041 119.773C19.884 121.669 17.6172 120.407 16.71 117.054C16.1262 114.895 16.2209 111.884 17.5278 110.306C17.7303 110.096 18.0669 109.743 18.577 109.633C19.3055 109.475 19.984 109.812 20.5572 110.451C20.2049 110.577 19.955 110.821 19.8051 110.979Z" fill="#5C8745"  fill-opacity="1.00"/>
<path d="M9.0287 126.76C8.88407 128.411 9.0234 129.997 9.3863 130.859C8.72888 130.212 8.01358 128.713 7.56917 127.041C7.08794 125.232 6.88811 122.933 7.58498 122.163C7.64283 122.116 7.72175 122.05 7.79275 122.024C8.3818 121.813 9.05233 122.636 9.61245 123.87C9.31266 124.737 9.11285 125.797 9.0287 126.76Z" fill="#5C8745"  fill-opacity="1.00"/>
<path d="M9.5836 105.175C9.36271 105.202 9.2338 105.331 9.08917 105.465C8.35023 106.309 7.97689 108.407 8.20304 110.464C8.27667 111.124 8.39495 111.715 8.55799 112.215C7.87953 111.989 7.24584 110.65 7.03546 108.72C6.80668 106.666 7.18003 104.568 7.9216 103.721C8.06097 103.592 8.19509 103.458 8.41073 103.437C9.0024 103.369 9.4784 104.116 9.79659 105.191C9.72559 105.173 9.65723 105.165 9.5836 105.175Z" fill="#5C8745"  fill-opacity="1.00"/>
<path d="M8.45543 91.4196C8.40547 91.3907 8.35288 91.367 8.29766 91.3591C8.1241 91.3249 7.9926 91.3933 7.85323 91.4617C7.09062 91.9271 6.30437 93.4365 5.98618 95.059C5.88625 95.5797 5.83366 96.0583 5.83892 96.4764C5.3761 96.1424 5.21308 94.9722 5.51286 93.4523C5.82842 91.8324 6.61204 90.323 7.3799 89.8549C7.51665 89.7892 7.65074 89.7208 7.81904 89.755C8.28712 89.8417 8.47121 90.5229 8.45543 91.4196Z" fill="#5C8745"  fill-opacity="1.00"/>
<path d="M29.3641 171.28C24.1047 166.123 19.5974 160.512 15.8423 154.795C12.1318 149.044 8.99981 143.229 6.80141 137.378C4.54515 131.554 3.03312 125.813 1.98914 120.367C1.32646 116.899 0.882064 113.551 0.608578 110.34C0.0484578 105.32 -0.122484 100.297 0.0852598 95.3115C0.32719 89.3974 1.10032 83.5359 2.37571 77.7979C7.58772 54.3596 21.2041 32.983 41.5289 18.4751C46.165 15.1644 51.1482 12.2113 56.4628 9.67366C56.5443 9.63421 56.6258 9.59732 56.7073 9.56051C96.2366 -9.18381 142.098 0.582815 170.875 30.5664C172.189 31.8733 173.446 33.3118 174.724 34.7291C175.442 35.497 176.079 36.3201 176.741 37.1327C177.396 37.9479 178.067 38.7552 178.714 39.5835C179.334 40.4329 179.955 41.2849 180.578 42.1369L181.514 43.4175L182.39 44.7455C182.971 45.6317 183.555 46.5232 184.139 47.4147C184.699 48.3219 185.225 49.2502 185.772 50.1706C190.121 57.5495 193.427 65.683 195.78 74.1716C198.013 82.6891 199.275 91.5959 199.196 100.589C199.149 118.553 194.158 136.837 184.507 152.373C179.082 161.824 171.356 170.281 161.09 178.538C151.094 187.156 132.282 196.138 119.93 197.879C118.849 198.087 117.768 198.292 116.69 198.5C115.615 198.729 114.521 198.831 113.44 199C111.278 199.352 109.101 199.51 106.937 199.72C102.6 199.994 98.2773 200.125 94.004 199.841C85.4471 199.433 77.1215 197.795 69.2562 195.352C61.3882 192.888 54.0435 189.42 47.3405 185.346C40.6138 181.276 34.6392 176.453 29.3641 171.28ZM166.023 34.3873C165.6 32.6596 162.497 29.738 160.984 29.2831C162.428 30.4086 164.001 32.1731 164.293 33.367C164.474 34.098 164.077 34.3557 163.359 34.1348C163.454 34.2111 163.548 34.2847 163.64 34.3531C165.192 35.5101 166.304 35.5259 166.023 34.3873ZM155.328 31.9838C154.387 30.3902 151.786 26.3168 146.619 25.1913C149.614 27.7552 154.218 35.7442 151.549 36.52C152.769 37.3062 157.277 36.278 155.328 31.9838ZM172 52.5425C171.95 52.3164 171.89 52.0903 171.819 51.8562C171.806 51.8168 171.792 51.7747 171.779 51.7353C171.7 51.4881 171.616 51.2409 171.516 50.9885C171.472 50.8806 171.424 50.7728 171.38 50.665C171.34 50.5729 171.303 50.4809 171.261 50.3888C171.203 50.26 171.143 50.1364 171.082 50.0102C171.046 49.9366 171.011 49.8603 170.975 49.7893C170.909 49.6604 170.843 49.5315 170.775 49.4027C170.741 49.3396 170.706 49.2738 170.672 49.2107C170.599 49.0766 170.525 48.9478 170.449 48.8163C170.417 48.7637 170.386 48.7111 170.354 48.6559C170.272 48.5191 170.188 48.3824 170.102 48.2483C170.078 48.2115 170.054 48.1773 170.031 48.1431C169.491 47.3201 168.889 46.5574 168.248 45.8711C168.237 45.8579 168.224 45.8474 168.213 45.8342C168.092 45.7054 167.971 45.5791 167.848 45.4582C167.829 45.4398 167.811 45.4214 167.793 45.403C167.672 45.282 167.548 45.1637 167.424 45.048C167.409 45.0322 167.39 45.0191 167.375 45.0033C166.704 44.3853 166.007 43.8515 165.31 43.4123C165.289 43.3992 165.266 43.3834 165.242 43.3703C165.126 43.2993 165.01 43.2309 164.895 43.1652C164.855 43.1415 164.816 43.1205 164.776 43.0968C164.669 43.0363 164.561 42.9784 164.453 42.9232C164.408 42.8995 164.361 42.8759 164.316 42.8548C164.211 42.8022 164.108 42.7523 164.003 42.7049C163.956 42.6839 163.909 42.6629 163.861 42.6418C163.759 42.5971 163.656 42.5524 163.554 42.513C163.512 42.4972 163.472 42.484 163.43 42.4683C163.191 42.3788 162.957 42.3026 162.725 42.2395C162.72 42.2368 162.712 42.2369 162.707 42.2342C162.625 42.2132 162.544 42.1974 162.462 42.179C162.397 42.1633 162.331 42.15 162.268 42.1369C162.194 42.1238 162.12 42.1132 162.047 42.1027C161.976 42.0922 161.907 42.0817 161.839 42.0765C161.771 42.0686 161.702 42.0633 161.634 42.0607C161.563 42.0554 161.492 42.0528 161.421 42.0528C161.358 42.0528 161.295 42.0528 161.232 42.0528C161.158 42.0554 161.087 42.0607 161.013 42.066C160.958 42.0712 160.9 42.0738 160.845 42.0817C160.766 42.0922 160.687 42.108 160.608 42.1238C160.564 42.1317 160.519 42.1395 160.474 42.1501C160.356 42.179 160.24 42.2158 160.127 42.2579C160.109 42.2658 160.09 42.2763 160.072 42.2842C159.977 42.321 159.888 42.3631 159.798 42.4104C159.762 42.4288 159.727 42.4525 159.693 42.4736C159.643 42.5051 159.591 42.5314 159.541 42.5656L159.549 42.5682C162.728 43.2466 166.801 46.7441 168.645 51.3934C169.865 54.4622 169.413 57.1235 167.751 58.2042L167.745 58.2095C167.785 58.2174 167.819 58.2174 167.858 58.2253C168.027 58.2568 168.19 58.2805 168.35 58.2963C168.387 58.2989 168.426 58.3068 168.463 58.3095C168.647 58.3226 168.821 58.32 168.992 58.3095C169.039 58.3068 169.089 58.3042 169.136 58.2989C169.302 58.2832 169.463 58.2595 169.618 58.2253C169.657 58.2174 169.694 58.2043 169.731 58.1937C169.875 58.1569 170.012 58.1096 170.146 58.0543C170.165 58.0464 170.186 58.0412 170.204 58.0333C170.346 57.9702 170.478 57.894 170.606 57.8125C170.638 57.7914 170.672 57.7703 170.704 57.7493C170.825 57.6652 170.94 57.5705 171.046 57.4706C171.072 57.4443 171.098 57.418 171.124 57.3917C171.222 57.2918 171.314 57.1866 171.401 57.0735C171.414 57.0551 171.427 57.0393 171.44 57.0209C171.529 56.8973 171.608 56.7632 171.682 56.6238C171.703 56.5843 171.724 56.5476 171.742 56.5081C171.811 56.3688 171.871 56.2241 171.924 56.0716C171.94 56.0295 171.953 55.9848 171.966 55.9401C172.011 55.7955 172.053 55.6482 172.084 55.493C172.092 55.4589 172.1 55.4247 172.105 55.3905C172.137 55.2274 172.158 55.0565 172.174 54.8803C172.179 54.8277 172.184 54.7751 172.187 54.7225C172.2 54.5411 172.203 54.3544 172.2 54.1625C172.2 54.1099 172.195 54.0573 172.195 54.002C172.187 53.8127 172.174 53.6207 172.15 53.4235C172.147 53.3972 172.145 53.3683 172.139 53.342C172.113 53.1316 172.074 52.916 172.026 52.6977C172.021 52.6425 172.011 52.5925 172 52.5425ZM182.28 68.5967C180.294 64.9993 179.752 61.4939 181.07 60.7629C181.662 60.4342 182.532 60.7261 183.494 61.4782C181.804 59.2403 179.992 58.0018 178.982 58.5566C177.664 59.285 178.206 62.7904 180.192 66.3904C181.286 68.3653 182.585 69.9589 183.752 70.8661C183.237 70.1956 182.74 69.4329 182.28 68.5967ZM152.648 52.8265C157.24 56.2293 159.167 63.8239 153.372 66.0696C157.561 66.109 162.21 64.6574 159.825 57.9281C158.399 53.8994 155.17 52.7739 152.648 52.8265ZM175.529 71.847C172.153 65.5805 167.808 64.6996 165.097 68.9649C167.19 66.8796 171.485 68.5783 173.36 73.1303C175.253 77.7296 175.009 78.3002 174.746 81.4032C176.789 79.9963 177.712 75.894 175.529 71.847ZM187.476 104.939C187.668 104.955 187.847 104.939 188.012 104.897C186.103 103.85 184.186 101.01 183.355 97.7598C182.337 93.7653 183.36 90.6728 185.632 90.849C186.303 90.9016 187 91.2251 187.684 91.7668C186.256 88.8136 184.381 86.7336 182.803 86.61C180.526 86.4285 179.726 90.3862 181.017 95.4509C182.311 100.508 185.198 104.757 187.476 104.939ZM159.835 80.4539C159.822 80.4381 159.809 80.425 159.796 80.4092C159.656 80.2409 159.512 80.0779 159.362 79.9122C159.32 79.8675 159.278 79.8202 159.236 79.7755C157.866 78.3028 156.133 77.0064 154.284 76.3438C160.869 82.4946 158.689 93.3341 152.512 93.029C160.632 94.0625 165.302 87.0491 159.835 80.4539ZM185.79 121.913C186.116 122.034 186.466 122.042 186.813 121.953C186.245 121.148 186.145 119.796 186.642 118.453C187.139 117.109 188.094 116.146 189.048 115.905C188.843 115.607 188.572 115.387 188.246 115.266C187.031 114.816 185.493 115.941 184.815 117.777C184.139 119.615 184.575 121.464 185.79 121.913ZM171.356 117.467C177.146 112.402 175.771 100.537 167.19 99.0431C172.807 102.538 169.336 117.348 164.237 119.783C166.696 120.07 169.386 119.568 171.356 117.467ZM170.617 145.465C168.653 146.193 167.093 140.942 169.268 137.037C174.535 127.567 177.278 133.11 177.307 133.126C177.444 131.972 176.323 129.437 174.44 128.606C173.057 127.996 168.361 129.868 165.765 135.414C163.172 140.96 165.576 148.647 170.617 145.465ZM145.811 110.148C150.368 116.78 143.899 125.548 139.19 126.557C143.168 128.104 149.061 126.436 151.105 120.141C152.23 116.672 149.661 111.497 145.811 110.148ZM132.413 112.633C134.511 108.152 140.441 106.404 144.176 105.486C148.441 104.579 150.547 97.7072 146.832 92.6188C144.502 89.5579 142.272 84.0723 144.552 79.2837C147.352 73.5536 151.904 74.3346 151.794 71.5419C151.681 68.6519 149.7 66.23 148.099 64.405C147.52 63.7792 146.974 63.1875 146.287 62.1251C142.487 56.2609 145.861 51.7931 150.829 49.8445C155.049 47.9169 152.569 41.5006 147.421 37.7612C145.18 36.1334 141.698 33.083 141.27 29.83C137.415 17.5363 149.974 21.0601 148.333 18.4278C146.69 15.7929 142.569 13.15 139.634 12.2375C139.463 11.9483 139.279 11.6696 139.103 11.3829C136.15 10.0602 133.176 8.89264 130.194 7.89337C123.372 5.58714 116.509 4.20914 109.877 3.48861C103.234 2.74442 96.8099 2.86805 90.7458 3.31246C84.6739 3.74899 78.9517 4.72985 73.674 6.05521C65.4563 8.15369 58.3746 11.1121 52.4578 14.2019C50.7695 15.0829 49.1681 15.9769 47.6718 16.8631C46.8408 17.3891 46.0335 17.8992 45.2499 18.3936C44.4689 18.8985 43.6878 19.3508 42.9831 19.8715C42.0548 20.5421 41.1449 21.1548 40.285 21.7622C38.9018 22.8141 37.5608 23.9002 36.2459 25.0151C21.9536 37.1484 11.7163 53.0054 6.31228 70.4007C4.29532 76.896 2.95162 83.6016 2.3205 90.4125C0.755842 107.29 3.5748 124.785 11.3928 141.16C14.2302 147.106 17.6015 152.628 21.4145 157.706C22.1613 158.219 22.9056 158.737 23.7208 159.407C25.4248 160.806 24.9935 162.558 27.8783 164.956C30.366 165.508 32.2488 162.658 36.401 164.314C44.8318 167.675 44.2953 174.191 47.8612 172.09C51.0483 169.3 54.5353 169.037 57.4148 169.7C60.076 170.312 62.2218 171.717 63.1448 172.656C67.2155 176.792 73.1113 175.924 74.5497 170.197C78.0261 161.937 87.5219 161.974 91.5873 164.12C94.9586 165.974 97.5015 166.31 100.86 164.359C102.866 163.302 107.279 159.47 106.377 154.306C105.222 147.206 109.159 140.224 119.948 141.057C130.641 141.389 136.557 132.127 133.504 125.006C131.224 118.539 130.53 116.657 132.413 112.633ZM163.58 168.169C163.159 166.636 163.751 164.49 165.245 162.66C166.738 160.83 168.721 159.817 170.307 159.923C170.157 159.357 169.867 158.879 169.436 158.529C167.835 157.222 164.876 158.19 162.833 160.693C160.79 163.197 160.437 166.284 162.042 167.591C162.473 167.943 163.001 168.132 163.58 168.169ZM152.414 151.258C153.929 149.052 155.12 146.456 154.857 143.808C154.381 139.001 150.029 137.349 150.029 137.349C150.029 137.349 151.455 143.277 148.199 148.602C145.333 153.288 143.161 154.937 138.853 154.298C143.842 158.003 149.43 155.605 152.414 151.258ZM125.074 145.381C126.304 151.75 114.079 159.744 111.157 158.24C116.509 163.378 122.234 160.743 123.764 159.568C127.188 156.943 129.988 149.604 125.074 145.381ZM138.133 181.168C138.112 181.152 138.091 181.139 138.075 181.12C136.518 179.645 137.659 175.748 140.626 172.421C143.592 169.092 147.25 167.588 148.806 169.063C149.474 169.702 149.645 170.786 149.382 172.082C150.213 169.965 150.187 168.03 149.088 166.847C147.081 164.685 142.248 165.9 138.304 169.563C134.356 173.229 132.792 177.954 134.798 180.116C135.571 180.942 136.752 181.278 138.133 181.168ZM122.631 171.017C121.489 176.842 110.7 180.786 104.031 177.657C106.411 182.038 110.092 183.379 112.759 183.274C119.767 182.998 123.985 176.371 122.631 171.017ZM126.11 189.393C129.478 188.549 128.976 189.22 130.059 189.793C130.299 188.597 128.313 186.585 125.079 187.4C121.311 188.349 120.146 192.099 120.474 192.241C120.227 191.66 122.131 190.39 126.11 189.393ZM95.1663 171.972C93.3019 175.906 84.6924 179.064 77.5239 175.511C79.3305 180.934 84.1165 181.407 86.115 181.244C92.1133 180.758 96.6416 177.026 95.1663 171.972ZM102.692 192.736C104.37 192.444 105.898 192.683 106.676 193.277C106.876 192.978 106.958 192.665 106.905 192.362C106.708 191.232 104.691 190.637 102.398 191.034C100.105 191.431 98.4114 192.675 98.6086 193.806C98.6612 194.108 98.8453 194.374 99.1293 194.592C99.6578 193.769 101.017 193.028 102.692 192.736ZM81.4973 193.845C87.6981 194.65 94.7377 191.881 92.3078 188.665C91.9397 188.178 91.377 187.766 90.6749 187.437C91.6715 189.638 86.775 191.579 82.4834 191.121C79.6486 190.819 78.276 189.575 79.1438 188.102C79.2673 187.929 79.4067 187.766 79.5619 187.61C78.4048 188.118 77.445 188.799 76.827 189.667C75.6857 191.626 77.6054 193.343 81.4973 193.845ZM66.0506 182.493C63.9337 183.692 59.8051 183.177 56.1131 180.676C53.4966 178.904 51.427 176.095 52.8233 173.976C52.3079 174.204 51.8425 174.509 51.4428 174.914C49.6835 177.102 51.8662 180.121 54.6405 182.001C59.4344 185.249 64.9461 185.22 66.0506 182.493ZM42.3152 174.707C41.1897 174.791 38.8414 173.555 36.4221 171.317C34.9389 169.944 33.5557 168.232 33.3348 167.104C33.0061 167.149 32.7221 167.267 32.5064 167.475C31.6913 168.559 33.3743 170.865 35.286 172.548C38.6915 175.553 42.1574 176.469 42.3152 174.707Z" fill="#5C8745"  fill-opacity="1.00"/>
</svg>
